<?xml version="1.0" standalone="no"?>
<!DOCTYPE svg PUBLIC "-//W3C//DTD SVG 20010904//EN"
 "http://www.w3.org/TR/2001/REC-SVG-20010904/DTD/svg10.dtd">
<svg version="1.0" xmlns="http://www.w3.org/2000/svg"
 width="700.000000pt" height="700.000000pt" viewBox="0 0 700.000000 700.000000"
 preserveAspectRatio="xMidYMid meet">
<metadata>
Created by potrace 1.14, written by Peter Selinger 2001-2017
</metadata>
<g transform="translate(0.000000,700.000000) scale(0.100000,-0.100000)"
fill="#000000" stroke="none">
<path d="M2707 6994 c-1 -1 -450 -4 -997 -7 -547 -3 -996 -6 -997 -6 -2 -1 -3
-149 -3 -330 l0 -329 93 4 c50 1 175 5 277 9 102 3 227 8 278 11 l93 7 -5 -64
c-3 -35 -8 -98 -11 -139 -4 -41 -9 -93 -12 -115 -3 -22 -7 -827 -9 -1790 -5
-2071 -10 -3016 -18 -3068 -44 -305 -110 -446 -245 -531 -53 -33 -165 -68
-261 -81 -25 -3 -54 -8 -65 -10 -11 -2 -41 -4 -67 -4 l-48 -1 0 -275 0 -275
1395 0 c1322 0 1395 1 1396 18 1 29 1 585 0 614 l-1 27 -117 -4 c-142 -5 -392
-14 -601 -20 l-152 -5 5 22 c9 43 23 234 30 408 2 58 5 418 6 801 l1 695 357
0 c312 -1 557 6 632 19 13 2 53 6 89 10 36 3 85 8 110 11 69 8 278 43 346 59
34 8 73 16 86 19 38 7 310 86 343 100 17 7 80 32 140 56 343 133 630 314 860
544 235 234 381 450 488 723 39 97 102 305 112 363 3 19 8 49 12 65 6 32 8 43
18 145 14 127 9 367 -10 515 -2 16 -6 46 -9 65 -7 59 -36 191 -57 265 -86 299
-223 531 -448 756 -260 260 -583 435 -1046 569 -155 45 -389 93 -555 115 -25
3 -61 7 -80 10 -19 2 -66 7 -105 10 -38 4 -92 9 -120 12 -43 4 -1123 11 -1128
7z m919 -606 c5 -3 36 -9 69 -12 333 -36 629 -170 835 -376 92 -92 155 -180
219 -308 35 -69 84 -198 96 -252 6 -22 36 -163 40 -180 3 -15 12 -98 21 -190
6 -64 6 -417 0 -438 -2 -9 -7 -46 -11 -82 -14 -166 -77 -398 -150 -555 -94
-204 -273 -413 -461 -537 -187 -125 -343 -191 -574 -244 -232 -54 -633 -66
-955 -29 -11 1 -34 3 -52 4 l-32 1 3 1288 c2 708 6 1301 9 1317 5 26 20 146
19 152 -3 15 46 161 69 206 67 133 160 195 349 232 64 13 486 15 506 3z"/>
</g>
</svg>
